<mxfile host="Electron" agent="Mozilla/5.0 (Windows NT 10.0; Win64; x64) AppleWebKit/537.36 (KHTML, like Gecko) draw.io/24.7.17 Chrome/128.0.6613.36 Electron/32.0.1 Safari/537.36" version="24.7.17">
  <diagram id="C5RBs43oDa-KdzZeNtuy" name="Page-1">
    <mxGraphModel dx="1195" dy="745" grid="1" gridSize="10" guides="1" tooltips="1" connect="1" arrows="1" fold="1" page="1" pageScale="1" pageWidth="827" pageHeight="1169" math="0" shadow="0">
      <root>
        <mxCell id="WIyWlLk6GJQsqaUBKTNV-0" />
        <mxCell id="WIyWlLk6GJQsqaUBKTNV-1" parent="WIyWlLk6GJQsqaUBKTNV-0" />
        <mxCell id="uuCozM32TLdusNKYvDLU-5" value="" style="edgeStyle=none;curved=1;rounded=0;orthogonalLoop=1;jettySize=auto;html=1;fontSize=12;startSize=8;endSize=8;" edge="1" parent="WIyWlLk6GJQsqaUBKTNV-1" source="uuCozM32TLdusNKYvDLU-0" target="uuCozM32TLdusNKYvDLU-4">
          <mxGeometry relative="1" as="geometry" />
        </mxCell>
        <mxCell id="uuCozM32TLdusNKYvDLU-0" value="시작" style="strokeWidth=2;html=1;shape=mxgraph.flowchart.terminator;whiteSpace=wrap;" vertex="1" parent="WIyWlLk6GJQsqaUBKTNV-1">
          <mxGeometry x="363" y="40" width="100" height="60" as="geometry" />
        </mxCell>
        <mxCell id="uuCozM32TLdusNKYvDLU-1" value="종료" style="strokeWidth=2;html=1;shape=mxgraph.flowchart.terminator;whiteSpace=wrap;" vertex="1" parent="WIyWlLk6GJQsqaUBKTNV-1">
          <mxGeometry x="364" y="1590" width="100" height="60" as="geometry" />
        </mxCell>
        <mxCell id="uuCozM32TLdusNKYvDLU-2" value="로그인 PROCESS" style="rounded=0;whiteSpace=wrap;html=1;" vertex="1" parent="WIyWlLk6GJQsqaUBKTNV-1">
          <mxGeometry x="10" y="30" width="120" height="60" as="geometry" />
        </mxCell>
        <mxCell id="uuCozM32TLdusNKYvDLU-7" value="" style="edgeStyle=none;curved=1;rounded=0;orthogonalLoop=1;jettySize=auto;html=1;fontSize=12;startSize=8;endSize=8;" edge="1" parent="WIyWlLk6GJQsqaUBKTNV-1" source="uuCozM32TLdusNKYvDLU-4" target="uuCozM32TLdusNKYvDLU-6">
          <mxGeometry relative="1" as="geometry" />
        </mxCell>
        <mxCell id="uuCozM32TLdusNKYvDLU-4" value="로그인 폼&lt;div&gt;(login_form.jsp)&lt;/div&gt;" style="shape=document;whiteSpace=wrap;html=1;boundedLbl=1;strokeWidth=2;" vertex="1" parent="WIyWlLk6GJQsqaUBKTNV-1">
          <mxGeometry x="353" y="180" width="120" height="80" as="geometry" />
        </mxCell>
        <mxCell id="uuCozM32TLdusNKYvDLU-9" value="" style="edgeStyle=none;curved=1;rounded=0;orthogonalLoop=1;jettySize=auto;html=1;fontSize=12;startSize=8;endSize=8;" edge="1" parent="WIyWlLk6GJQsqaUBKTNV-1" source="uuCozM32TLdusNKYvDLU-6" target="uuCozM32TLdusNKYvDLU-8">
          <mxGeometry relative="1" as="geometry" />
        </mxCell>
        <mxCell id="uuCozM32TLdusNKYvDLU-6" value="ID/PW 입력" style="shape=parallelogram;perimeter=parallelogramPerimeter;whiteSpace=wrap;html=1;fixedSize=1;strokeWidth=2;" vertex="1" parent="WIyWlLk6GJQsqaUBKTNV-1">
          <mxGeometry x="354" y="330" width="120" height="60" as="geometry" />
        </mxCell>
        <mxCell id="uuCozM32TLdusNKYvDLU-11" value="" style="edgeStyle=none;curved=1;rounded=0;orthogonalLoop=1;jettySize=auto;html=1;fontSize=12;startSize=8;endSize=8;" edge="1" parent="WIyWlLk6GJQsqaUBKTNV-1" source="uuCozM32TLdusNKYvDLU-8" target="uuCozM32TLdusNKYvDLU-10">
          <mxGeometry relative="1" as="geometry" />
        </mxCell>
        <mxCell id="uuCozM32TLdusNKYvDLU-8" value="&lt;div&gt;유효성 검사&lt;/div&gt;(login.jsp)" style="whiteSpace=wrap;html=1;strokeWidth=2;" vertex="1" parent="WIyWlLk6GJQsqaUBKTNV-1">
          <mxGeometry x="353" y="460" width="120" height="60" as="geometry" />
        </mxCell>
        <mxCell id="uuCozM32TLdusNKYvDLU-21" value="" style="edgeStyle=none;curved=1;rounded=0;orthogonalLoop=1;jettySize=auto;html=1;fontSize=12;startSize=8;endSize=8;" edge="1" parent="WIyWlLk6GJQsqaUBKTNV-1" source="uuCozM32TLdusNKYvDLU-10" target="uuCozM32TLdusNKYvDLU-20">
          <mxGeometry relative="1" as="geometry" />
        </mxCell>
        <mxCell id="uuCozM32TLdusNKYvDLU-30" value="" style="edgeStyle=none;curved=1;rounded=0;orthogonalLoop=1;jettySize=auto;html=1;fontSize=12;startSize=8;endSize=8;" edge="1" parent="WIyWlLk6GJQsqaUBKTNV-1" source="uuCozM32TLdusNKYvDLU-10" target="uuCozM32TLdusNKYvDLU-29">
          <mxGeometry relative="1" as="geometry" />
        </mxCell>
        <mxCell id="uuCozM32TLdusNKYvDLU-10" value="ID is NULL" style="rhombus;whiteSpace=wrap;html=1;strokeWidth=2;" vertex="1" parent="WIyWlLk6GJQsqaUBKTNV-1">
          <mxGeometry x="550" y="450" width="80" height="80" as="geometry" />
        </mxCell>
        <mxCell id="uuCozM32TLdusNKYvDLU-15" value="username_msg" style="swimlane;fontStyle=0;childLayout=stackLayout;horizontal=1;startSize=30;horizontalStack=0;resizeParent=1;resizeParentMax=0;resizeLast=0;collapsible=1;marginBottom=0;whiteSpace=wrap;html=1;" vertex="1" parent="WIyWlLk6GJQsqaUBKTNV-1">
          <mxGeometry x="1020" y="390" width="140" height="60" as="geometry" />
        </mxCell>
        <mxCell id="uuCozM32TLdusNKYvDLU-16" value="username을 입력하세요" style="text;strokeColor=none;fillColor=none;align=left;verticalAlign=middle;spacingLeft=4;spacingRight=4;overflow=hidden;points=[[0,0.5],[1,0.5]];portConstraint=eastwest;rotatable=0;whiteSpace=wrap;html=1;" vertex="1" parent="uuCozM32TLdusNKYvDLU-15">
          <mxGeometry y="30" width="140" height="30" as="geometry" />
        </mxCell>
        <mxCell id="uuCozM32TLdusNKYvDLU-19" value="YES" style="text;html=1;align=center;verticalAlign=middle;resizable=0;points=[];autosize=1;strokeColor=none;fillColor=none;fontSize=16;" vertex="1" parent="WIyWlLk6GJQsqaUBKTNV-1">
          <mxGeometry x="590" y="530" width="60" height="30" as="geometry" />
        </mxCell>
        <mxCell id="uuCozM32TLdusNKYvDLU-32" value="" style="edgeStyle=none;curved=1;rounded=0;orthogonalLoop=1;jettySize=auto;html=1;fontSize=12;startSize=8;endSize=8;" edge="1" parent="WIyWlLk6GJQsqaUBKTNV-1" source="uuCozM32TLdusNKYvDLU-20" target="uuCozM32TLdusNKYvDLU-31">
          <mxGeometry relative="1" as="geometry" />
        </mxCell>
        <mxCell id="uuCozM32TLdusNKYvDLU-34" value="" style="edgeStyle=none;curved=1;rounded=0;orthogonalLoop=1;jettySize=auto;html=1;fontSize=12;startSize=8;endSize=8;" edge="1" parent="WIyWlLk6GJQsqaUBKTNV-1" source="uuCozM32TLdusNKYvDLU-20" target="uuCozM32TLdusNKYvDLU-33">
          <mxGeometry relative="1" as="geometry" />
        </mxCell>
        <mxCell id="uuCozM32TLdusNKYvDLU-20" value="PW is NULL" style="rhombus;whiteSpace=wrap;html=1;strokeWidth=2;" vertex="1" parent="WIyWlLk6GJQsqaUBKTNV-1">
          <mxGeometry x="770" y="450" width="80" height="80" as="geometry" />
        </mxCell>
        <mxCell id="uuCozM32TLdusNKYvDLU-23" value="password_mag" style="swimlane;fontStyle=0;childLayout=stackLayout;horizontal=1;startSize=30;horizontalStack=0;resizeParent=1;resizeParentMax=0;resizeLast=0;collapsible=1;marginBottom=0;whiteSpace=wrap;html=1;" vertex="1" parent="WIyWlLk6GJQsqaUBKTNV-1">
          <mxGeometry x="1020" y="320" width="140" height="60" as="geometry" />
        </mxCell>
        <mxCell id="uuCozM32TLdusNKYvDLU-24" value="password를 입력하세요" style="text;strokeColor=none;fillColor=none;align=left;verticalAlign=middle;spacingLeft=4;spacingRight=4;overflow=hidden;points=[[0,0.5],[1,0.5]];portConstraint=eastwest;rotatable=0;whiteSpace=wrap;html=1;" vertex="1" parent="uuCozM32TLdusNKYvDLU-23">
          <mxGeometry y="30" width="140" height="30" as="geometry" />
        </mxCell>
        <mxCell id="uuCozM32TLdusNKYvDLU-25" value="YES" style="text;html=1;align=center;verticalAlign=middle;resizable=0;points=[];autosize=1;strokeColor=none;fillColor=none;fontSize=16;" vertex="1" parent="WIyWlLk6GJQsqaUBKTNV-1">
          <mxGeometry x="810" y="530" width="60" height="30" as="geometry" />
        </mxCell>
        <mxCell id="uuCozM32TLdusNKYvDLU-29" value="username_msg&lt;br&gt;을 request 저장" style="whiteSpace=wrap;html=1;strokeWidth=2;" vertex="1" parent="WIyWlLk6GJQsqaUBKTNV-1">
          <mxGeometry x="530" y="570" width="120" height="60" as="geometry" />
        </mxCell>
        <mxCell id="uuCozM32TLdusNKYvDLU-31" value="password_msg&lt;br&gt;을 request 저장" style="whiteSpace=wrap;html=1;strokeWidth=2;" vertex="1" parent="WIyWlLk6GJQsqaUBKTNV-1">
          <mxGeometry x="750" y="570" width="120" height="60" as="geometry" />
        </mxCell>
        <mxCell id="uuCozM32TLdusNKYvDLU-42" value="" style="edgeStyle=none;curved=0;rounded=0;orthogonalLoop=1;jettySize=auto;html=1;fontSize=12;startSize=8;endSize=8;" edge="1" parent="WIyWlLk6GJQsqaUBKTNV-1" source="uuCozM32TLdusNKYvDLU-33" target="uuCozM32TLdusNKYvDLU-41">
          <mxGeometry relative="1" as="geometry">
            <Array as="points">
              <mxPoint x="1010" y="780" />
            </Array>
          </mxGeometry>
        </mxCell>
        <mxCell id="uuCozM32TLdusNKYvDLU-33" value="ID is NULL&lt;div&gt;or&lt;/div&gt;&lt;div&gt;PW is NULL&lt;/div&gt;" style="rhombus;whiteSpace=wrap;html=1;strokeWidth=2;" vertex="1" parent="WIyWlLk6GJQsqaUBKTNV-1">
          <mxGeometry x="970" y="450" width="80" height="80" as="geometry" />
        </mxCell>
        <mxCell id="uuCozM32TLdusNKYvDLU-35" value="" style="endArrow=classic;html=1;rounded=0;fontSize=12;startSize=8;endSize=8;curved=0;exitX=0.512;exitY=0.067;exitDx=0;exitDy=0;exitPerimeter=0;entryX=0.989;entryY=0.365;entryDx=0;entryDy=0;entryPerimeter=0;strokeColor=none;fillColor=#647687;" edge="1" parent="WIyWlLk6GJQsqaUBKTNV-1" source="uuCozM32TLdusNKYvDLU-33" target="uuCozM32TLdusNKYvDLU-4">
          <mxGeometry width="50" height="50" relative="1" as="geometry">
            <mxPoint x="730" y="370" as="sourcePoint" />
            <mxPoint x="780" y="320" as="targetPoint" />
            <Array as="points">
              <mxPoint x="1011" y="220" />
            </Array>
          </mxGeometry>
        </mxCell>
        <mxCell id="uuCozM32TLdusNKYvDLU-36" value="" style="endArrow=classic;html=1;rounded=0;fontSize=12;startSize=8;endSize=8;curved=0;exitX=0.5;exitY=0;exitDx=0;exitDy=0;entryX=1;entryY=0.5;entryDx=0;entryDy=0;" edge="1" parent="WIyWlLk6GJQsqaUBKTNV-1" source="uuCozM32TLdusNKYvDLU-33" target="uuCozM32TLdusNKYvDLU-4">
          <mxGeometry width="50" height="50" relative="1" as="geometry">
            <mxPoint x="730" y="370" as="sourcePoint" />
            <mxPoint x="780" y="320" as="targetPoint" />
            <Array as="points">
              <mxPoint x="1010" y="220" />
            </Array>
          </mxGeometry>
        </mxCell>
        <mxCell id="uuCozM32TLdusNKYvDLU-37" value="YES" style="text;html=1;align=center;verticalAlign=middle;resizable=0;points=[];autosize=1;strokeColor=none;fillColor=none;fontSize=16;" vertex="1" parent="WIyWlLk6GJQsqaUBKTNV-1">
          <mxGeometry x="950" y="420" width="60" height="30" as="geometry" />
        </mxCell>
        <mxCell id="uuCozM32TLdusNKYvDLU-39" value="NO" style="text;html=1;align=center;verticalAlign=middle;resizable=0;points=[];autosize=1;strokeColor=none;fillColor=none;fontSize=16;" vertex="1" parent="WIyWlLk6GJQsqaUBKTNV-1">
          <mxGeometry x="960" y="530" width="50" height="30" as="geometry" />
        </mxCell>
        <mxCell id="uuCozM32TLdusNKYvDLU-44" value="" style="edgeStyle=none;curved=1;rounded=0;orthogonalLoop=1;jettySize=auto;html=1;fontSize=12;startSize=8;endSize=8;" edge="1" parent="WIyWlLk6GJQsqaUBKTNV-1" source="uuCozM32TLdusNKYvDLU-41" target="uuCozM32TLdusNKYvDLU-43">
          <mxGeometry relative="1" as="geometry" />
        </mxCell>
        <mxCell id="uuCozM32TLdusNKYvDLU-53" value="" style="edgeStyle=none;curved=1;rounded=0;orthogonalLoop=1;jettySize=auto;html=1;fontSize=12;startSize=8;endSize=8;" edge="1" parent="WIyWlLk6GJQsqaUBKTNV-1" source="uuCozM32TLdusNKYvDLU-41" target="uuCozM32TLdusNKYvDLU-52">
          <mxGeometry relative="1" as="geometry" />
        </mxCell>
        <mxCell id="uuCozM32TLdusNKYvDLU-41" value="ID is admin" style="rhombus;whiteSpace=wrap;html=1;strokeWidth=2;" vertex="1" parent="WIyWlLk6GJQsqaUBKTNV-1">
          <mxGeometry x="373" y="740" width="80" height="80" as="geometry" />
        </mxCell>
        <mxCell id="uuCozM32TLdusNKYvDLU-57" value="" style="edgeStyle=none;curved=1;rounded=0;orthogonalLoop=1;jettySize=auto;html=1;fontSize=12;startSize=8;endSize=8;" edge="1" parent="WIyWlLk6GJQsqaUBKTNV-1" source="uuCozM32TLdusNKYvDLU-43" target="uuCozM32TLdusNKYvDLU-56">
          <mxGeometry relative="1" as="geometry" />
        </mxCell>
        <mxCell id="uuCozM32TLdusNKYvDLU-60" value="" style="edgeStyle=none;curved=1;rounded=0;orthogonalLoop=1;jettySize=auto;html=1;fontSize=12;startSize=8;endSize=8;" edge="1" parent="WIyWlLk6GJQsqaUBKTNV-1" source="uuCozM32TLdusNKYvDLU-43" target="uuCozM32TLdusNKYvDLU-59">
          <mxGeometry relative="1" as="geometry" />
        </mxCell>
        <mxCell id="uuCozM32TLdusNKYvDLU-43" value="PW is 1234" style="rhombus;whiteSpace=wrap;html=1;strokeWidth=2;" vertex="1" parent="WIyWlLk6GJQsqaUBKTNV-1">
          <mxGeometry x="373" y="930" width="80" height="80" as="geometry" />
        </mxCell>
        <mxCell id="uuCozM32TLdusNKYvDLU-45" value="" style="endArrow=classic;html=1;rounded=0;fontSize=12;startSize=8;endSize=8;curved=0;entryX=-0.004;entryY=0.385;entryDx=0;entryDy=0;entryPerimeter=0;exitX=0;exitY=0.5;exitDx=0;exitDy=0;" edge="1" parent="WIyWlLk6GJQsqaUBKTNV-1" source="uuCozM32TLdusNKYvDLU-52" target="uuCozM32TLdusNKYvDLU-4">
          <mxGeometry width="50" height="50" relative="1" as="geometry">
            <mxPoint x="180" y="780" as="sourcePoint" />
            <mxPoint x="550" y="550" as="targetPoint" />
            <Array as="points">
              <mxPoint x="110" y="780" />
              <mxPoint x="110" y="210" />
            </Array>
          </mxGeometry>
        </mxCell>
        <mxCell id="uuCozM32TLdusNKYvDLU-46" value="NO" style="text;html=1;align=center;verticalAlign=middle;resizable=0;points=[];autosize=1;strokeColor=none;fillColor=none;fontSize=16;" vertex="1" parent="WIyWlLk6GJQsqaUBKTNV-1">
          <mxGeometry x="323" y="740" width="50" height="30" as="geometry" />
        </mxCell>
        <mxCell id="uuCozM32TLdusNKYvDLU-47" value="username_msg" style="swimlane;fontStyle=0;childLayout=stackLayout;horizontal=1;startSize=30;horizontalStack=0;resizeParent=1;resizeParentMax=0;resizeLast=0;collapsible=1;marginBottom=0;whiteSpace=wrap;html=1;" vertex="1" parent="WIyWlLk6GJQsqaUBKTNV-1">
          <mxGeometry x="130" y="670" width="180" height="60" as="geometry" />
        </mxCell>
        <mxCell id="uuCozM32TLdusNKYvDLU-48" value="해당 ID는 존재하지않습니다" style="text;strokeColor=none;fillColor=none;align=left;verticalAlign=middle;spacingLeft=4;spacingRight=4;overflow=hidden;points=[[0,0.5],[1,0.5]];portConstraint=eastwest;rotatable=0;whiteSpace=wrap;html=1;" vertex="1" parent="uuCozM32TLdusNKYvDLU-47">
          <mxGeometry y="30" width="180" height="30" as="geometry" />
        </mxCell>
        <mxCell id="uuCozM32TLdusNKYvDLU-49" value="" style="endArrow=classic;html=1;rounded=0;fontSize=12;startSize=8;endSize=8;curved=0;entryX=-0.004;entryY=0.406;entryDx=0;entryDy=0;entryPerimeter=0;exitX=0;exitY=0.5;exitDx=0;exitDy=0;" edge="1" parent="WIyWlLk6GJQsqaUBKTNV-1" source="uuCozM32TLdusNKYvDLU-56" target="uuCozM32TLdusNKYvDLU-4">
          <mxGeometry width="50" height="50" relative="1" as="geometry">
            <mxPoint x="180" y="970" as="sourcePoint" />
            <mxPoint x="363" y="221" as="targetPoint" />
            <Array as="points">
              <mxPoint x="110" y="970" />
              <mxPoint x="110" y="210" />
            </Array>
          </mxGeometry>
        </mxCell>
        <mxCell id="uuCozM32TLdusNKYvDLU-50" value="password_msg" style="swimlane;fontStyle=0;childLayout=stackLayout;horizontal=1;startSize=30;horizontalStack=0;resizeParent=1;resizeParentMax=0;resizeLast=0;collapsible=1;marginBottom=0;whiteSpace=wrap;html=1;" vertex="1" parent="WIyWlLk6GJQsqaUBKTNV-1">
          <mxGeometry x="130" y="870" width="180" height="60" as="geometry" />
        </mxCell>
        <mxCell id="uuCozM32TLdusNKYvDLU-51" value="패스워드가 일치하지않습니다" style="text;strokeColor=none;fillColor=none;align=left;verticalAlign=middle;spacingLeft=4;spacingRight=4;overflow=hidden;points=[[0,0.5],[1,0.5]];portConstraint=eastwest;rotatable=0;whiteSpace=wrap;html=1;" vertex="1" parent="uuCozM32TLdusNKYvDLU-50">
          <mxGeometry y="30" width="180" height="30" as="geometry" />
        </mxCell>
        <mxCell id="uuCozM32TLdusNKYvDLU-52" value="username_msg&lt;br&gt;을 request 저장" style="whiteSpace=wrap;html=1;strokeWidth=2;" vertex="1" parent="WIyWlLk6GJQsqaUBKTNV-1">
          <mxGeometry x="190" y="750" width="120" height="60" as="geometry" />
        </mxCell>
        <mxCell id="uuCozM32TLdusNKYvDLU-56" value="password_msg&lt;br&gt;을 request 저장" style="whiteSpace=wrap;html=1;strokeWidth=2;" vertex="1" parent="WIyWlLk6GJQsqaUBKTNV-1">
          <mxGeometry x="190" y="940" width="120" height="60" as="geometry" />
        </mxCell>
        <mxCell id="uuCozM32TLdusNKYvDLU-58" value="NO" style="text;html=1;align=center;verticalAlign=middle;resizable=0;points=[];autosize=1;strokeColor=none;fillColor=none;fontSize=16;" vertex="1" parent="WIyWlLk6GJQsqaUBKTNV-1">
          <mxGeometry x="323" y="930" width="50" height="30" as="geometry" />
        </mxCell>
        <mxCell id="uuCozM32TLdusNKYvDLU-62" value="" style="edgeStyle=none;curved=1;rounded=0;orthogonalLoop=1;jettySize=auto;html=1;fontSize=12;startSize=8;endSize=8;" edge="1" parent="WIyWlLk6GJQsqaUBKTNV-1" source="uuCozM32TLdusNKYvDLU-59" target="uuCozM32TLdusNKYvDLU-61">
          <mxGeometry relative="1" as="geometry" />
        </mxCell>
        <mxCell id="uuCozM32TLdusNKYvDLU-59" value="사용자 정보를 저장&lt;div&gt;isAuth/Role&lt;/div&gt;" style="whiteSpace=wrap;html=1;strokeWidth=2;" vertex="1" parent="WIyWlLk6GJQsqaUBKTNV-1">
          <mxGeometry x="354" y="1060" width="120" height="60" as="geometry" />
        </mxCell>
        <mxCell id="uuCozM32TLdusNKYvDLU-65" value="" style="edgeStyle=none;curved=1;rounded=0;orthogonalLoop=1;jettySize=auto;html=1;fontSize=12;startSize=8;endSize=8;" edge="1" parent="WIyWlLk6GJQsqaUBKTNV-1" source="uuCozM32TLdusNKYvDLU-61" target="uuCozM32TLdusNKYvDLU-64">
          <mxGeometry relative="1" as="geometry" />
        </mxCell>
        <mxCell id="uuCozM32TLdusNKYvDLU-61" value="MAIN PAGE&amp;nbsp;&lt;div&gt;이동 출력&lt;/div&gt;" style="shape=parallelogram;perimeter=parallelogramPerimeter;whiteSpace=wrap;html=1;fixedSize=1;strokeWidth=2;" vertex="1" parent="WIyWlLk6GJQsqaUBKTNV-1">
          <mxGeometry x="354" y="1180" width="120" height="60" as="geometry" />
        </mxCell>
        <mxCell id="uuCozM32TLdusNKYvDLU-69" value="" style="edgeStyle=none;curved=1;rounded=0;orthogonalLoop=1;jettySize=auto;html=1;fontSize=12;startSize=8;endSize=8;" edge="1" parent="WIyWlLk6GJQsqaUBKTNV-1" source="uuCozM32TLdusNKYvDLU-64" target="uuCozM32TLdusNKYvDLU-68">
          <mxGeometry relative="1" as="geometry" />
        </mxCell>
        <mxCell id="uuCozM32TLdusNKYvDLU-64" value="MAIN PAGE로 이동" style="whiteSpace=wrap;html=1;strokeWidth=2;" vertex="1" parent="WIyWlLk6GJQsqaUBKTNV-1">
          <mxGeometry x="353" y="1310" width="120" height="60" as="geometry" />
        </mxCell>
        <mxCell id="uuCozM32TLdusNKYvDLU-70" value="" style="edgeStyle=none;curved=1;rounded=0;orthogonalLoop=1;jettySize=auto;html=1;fontSize=12;startSize=8;endSize=8;" edge="1" parent="WIyWlLk6GJQsqaUBKTNV-1" source="uuCozM32TLdusNKYvDLU-68" target="uuCozM32TLdusNKYvDLU-1">
          <mxGeometry relative="1" as="geometry" />
        </mxCell>
        <mxCell id="uuCozM32TLdusNKYvDLU-68" value="MAIN PAGE" style="shape=document;whiteSpace=wrap;html=1;boundedLbl=1;strokeWidth=2;" vertex="1" parent="WIyWlLk6GJQsqaUBKTNV-1">
          <mxGeometry x="353" y="1440" width="120" height="80" as="geometry" />
        </mxCell>
      </root>
    </mxGraphModel>
  </diagram>
</mxfile>
